<svg version="1.1" xmlns="http://www.w3.org/2000/svg" xmlns:xlink="http://www.w3.org/1999/xlink" width="345.83616" height="240.45454" viewBox="1060.86985,378.10147,345.83616,240.45454"><defs><linearGradient x1="1187.95958" y1="543.8784" x2="1351.04804" y2="492.83759" gradientUnits="userSpaceOnUse" id="color-1"><stop offset="0" stop-color="#8f4598"/><stop offset="1" stop-color="#cc94d2"/></linearGradient><linearGradient x1="1364.32827" y1="474.867" x2="1426.32659" y2="440.21515" gradientUnits="userSpaceOnUse" id="color-2"><stop offset="0" stop-color="#cc94d2"/><stop offset="1" stop-color="#4d2552"/></linearGradient></defs><g fill="none" fill-rule="nonzero" stroke="#000000" stroke-width="0" stroke-linecap="round" stroke-linejoin="round" stroke-miterlimit="10" stroke-dasharray="" stroke-dashoffset="0" font-family="none" font-weight="none" font-size="none" text-anchor="none" style="mix-blend-mode: normal"><g fill="url(#color-1)"><path d="M1357.27389,464.22016l-260.51247,80.2463l-20.20457,6.22366l-1.96442,-6.487l280.55219,-85.06204l-2.277,3.39641z" id="Path 1"/></g><path d="M1151.26207,618.21567c28.94844,-2.17 55.03859,-14.59107 74.65135,-33.64407c22.48866,-21.84683 36.46102,-52.41313 36.46102,-86.24286c0,-63.33322 -48.97065,-115.22873 -111.11236,-119.88693c3.00878,-0.22554 6.04843,-0.34034 9.1149,-0.34034c66.39969,0 120.22727,53.82758 120.22727,120.22727c0,46.11868 -25.96728,86.17237 -64.07847,106.33771c-16.75966,8.86785 -35.86779,13.88956 -56.1488,13.88956c-3.06647,0 -6.10613,-0.1148 -9.1149,-0.34034z" id="Path 1" fill="#6a2673"/><path d="M1089.78087,554.71037l-22.37142,6.78291l5.52938,-8.14681l8.4384,-2.73048l15.71235,-5.08418z" id="Path 1" fill="#6a2673"/><path d="M1072.04516,543.49863l-11.17531,-3.5743l24.42413,-6.913l9.12261,3.7044z" id="Path 1" fill="#cc94d2"/><g fill="url(#color-2)"><path d="M1368.89039,457.49506l37.04806,-11.17114c0.25482,-0.07684 0.27335,-0.0312 0.03705,0.09128l-37.60394,19.49057c-1.45254,0.75287 -4.43496,0.92596 -5.96485,0.34617l-5.57982,-2.1146l-4.41219,-1.67208z" id="Path 1"/></g><path d="M1369.18228,457.54727l-16.45884,4.99024l2.277,-3.39641l3.6529,-5.44873c0.87308,-1.30231 3.30529,-2.77018 4.86441,-2.93575l43.18826,-4.58638z" id="Path 1" fill="#cc94d2"/></g></svg>